HIERARCHY
ROOT root
{
	OFFSET 0.000000 0.000000 0.000000
	CHANNELS 6 Xposition Yposition Zposition Zrotation Yrotation Xrotation
	JOINT lhip
	{
		OFFSET 0.058581 -0.082280 -0.017664
		CHANNELS 3 Zrotation Yrotation Xrotation
		JOINT lknee
		{
			OFFSET 0.043451 -0.386469 0.008037
			CHANNELS 3 Zrotation Yrotation Xrotation
			JOINT lankle
			{
				OFFSET -0.014790 -0.426874 -0.037428
				CHANNELS 3 Zrotation Yrotation Xrotation
				JOINT ltoe
				{
					OFFSET 0.041054 -0.060286 0.122042
					CHANNELS 3 Zrotation Yrotation Xrotation
					End Site
					{
						OFFSET 0.000000 0.000000 0.000000
					}
				}
			}
		}
	}
	JOINT rhip
	{
		OFFSET -0.060310 -0.090513 -0.013543
		CHANNELS 3 Zrotation Yrotation Xrotation
		JOINT rknee
		{
			OFFSET -0.043257 -0.383688 -0.004843
			CHANNELS 3 Zrotation Yrotation Xrotation
			JOINT rankle
			{
				OFFSET 0.019056 -0.420046 -0.034562
				CHANNELS 3 Zrotation Yrotation Xrotation
				JOINT rtoe
				{
					OFFSET -0.034840 -0.062106 0.130323
					CHANNELS 3 Zrotation Yrotation Xrotation
					End Site
					{
						OFFSET 0.000000 0.000000 0.000000
					}
				}
			}
		}
	}
	JOINT lowerback
	{
		OFFSET 0.004439 0.124404 -0.038385
		CHANNELS 3 Zrotation Yrotation Xrotation
		JOINT upperback
		{
			OFFSET 0.004488 0.137956 0.026820
			CHANNELS 3 Zrotation Yrotation Xrotation
			JOINT chest
			{
				OFFSET -0.002265 0.056032 0.002855
				CHANNELS 3 Zrotation Yrotation Xrotation
				JOINT lowerneck
				{
					OFFSET -0.013390 0.211636 -0.033468
					CHANNELS 3 Zrotation Yrotation Xrotation
					JOINT upperneck
					{
						OFFSET 0.010113 0.088937 0.050410
						CHANNELS 3 Zrotation Yrotation Xrotation
						End Site
						{
							OFFSET 0.000000 0.000000 0.000000
						}
					}
				}
				JOINT lclavicle
				{
					OFFSET 0.071702 0.114000 -0.018898
					CHANNELS 3 Zrotation Yrotation Xrotation
					JOINT lshoulder
					{
						OFFSET 0.122921 0.045205 -0.019046
						CHANNELS 3 Zrotation Yrotation Xrotation
						JOINT lelbow
						{
							OFFSET 0.255332 -0.015649 -0.022946
							CHANNELS 3 Zrotation Yrotation Xrotation
							JOINT lwrist
							{
								OFFSET 0.265709 0.012698 -0.007375
								CHANNELS 3 Zrotation Yrotation Xrotation
								End Site
								{
									OFFSET 0.000000 0.000000 0.000000
								}
							}
						}
					}
				}
				JOINT rclavicle
				{
					OFFSET -0.082954 0.112472 -0.023707
					CHANNELS 3 Zrotation Yrotation Xrotation
					JOINT rshoulder
					{
						OFFSET -0.113228 0.046853 -0.008472
						CHANNELS 3 Zrotation Yrotation Xrotation
						JOINT relbow
						{
							OFFSET -0.260127 -0.014369 -0.031269
							CHANNELS 3 Zrotation Yrotation Xrotation
							JOINT rwrist
							{
								OFFSET -0.269108 0.006794 -0.006027
								CHANNELS 3 Zrotation Yrotation Xrotation
								End Site
								{
									OFFSET 0.000000 0.000000 0.000000
								}
							}
						}
					}
				}
			}
		}
	}
}
MOTION
Frames: 7
Frame Time: 0.033333
0.320748 1.576707 1.003030 75.891371 -2.874572 86.403639 -3.130278 -2.830382 -4.388298 -3.925596 -2.790742 2.814766 6.995367 9.996905 -0.738288 0.000000 -0.000000 0.000000 -0.893685 3.703777 0.839450 3.705886 8.554779 49.317989 8.209141 -0.654761 13.650543 0.000000 -0.000000 0.000000 -5.651333 3.604820 1.566768 0.316855 -3.137981 13.830830 -4.332308 0.547019 -7.747623 0.008955 -20.051610 -2.903259 4.463290 -20.914580 8.760275 -29.334820 3.721884 3.022389 -51.179145 1.644388 11.193136 12.509081 -8.782720 -6.194790 -12.589315 -4.079768 11.084131 34.947101 7.572831 2.307049 51.266267 4.712235 17.824814 -9.006743 22.660603 1.432890 6.655435 7.113909 14.686908 
0.353180 1.578719 1.005137 77.219325 -2.566836 85.729735 -3.745153 -1.804032 -1.272682 -3.748033 -4.713898 1.915567 7.149124 10.394134 -1.863107 0.000000 -0.000000 0.000000 -0.909671 2.686324 -3.106645 2.616254 5.432990 54.546773 6.075139 -3.434989 11.084240 0.000000 -0.000000 0.000000 -5.633344 1.953951 2.576940 0.788568 -3.247045 13.320290 -3.985264 0.057865 -7.426009 -0.039465 -19.942833 -3.433322 4.106720 -20.227328 8.155024 -29.481406 3.763086 2.861654 -50.877324 0.930399 11.784829 12.306480 -9.792796 -5.808617 -13.206076 -3.622218 11.473705 35.533072 7.528364 2.144245 50.575154 3.044373 17.593463 -8.542641 15.780593 1.884958 8.556756 5.483526 14.890545 
0.384561 1.580358 1.006964 79.405097 -1.893527 85.044430 -3.765864 -1.039305 1.351311 -3.656144 -6.453186 1.780143 6.786879 10.316303 -3.290279 0.000000 -0.000000 0.000000 -0.624551 1.691423 -6.351943 0.993877 2.095915 57.153319 4.066853 -6.472376 5.714566 0.000000 -0.000000 0.000000 -5.370428 0.480697 4.012939 1.407745 -3.493733 12.570068 -3.444817 -0.538008 -6.956706 0.181522 -19.480418 -4.120489 4.066185 -20.482544 7.502253 -29.747627 3.507241 2.300621 -50.639698 -0.429175 12.209651 12.432642 -11.009292 -5.252328 -11.545217 -3.974484 12.524987 35.989837 6.858430 1.143528 49.435973 0.473520 17.112997 -8.741143 10.829005 2.753163 10.294227 4.276583 15.888245 
0.414581 1.581298 1.007871 81.510105 -1.264118 84.388802 -3.496461 -0.348553 3.799033 -3.714502 -8.522969 2.004418 6.291656 10.207182 -5.016118 0.000000 -0.000000 0.000000 -0.489664 0.890905 -9.188984 -0.657558 -1.139509 57.384260 2.953923 -9.313021 1.314744 0.000000 -0.000000 0.000000 -5.146500 -0.687996 5.301467 1.944803 -3.659425 11.786502 -2.836741 -1.201760 -6.406288 0.428798 -18.986383 -4.519288 4.097507 -20.617838 7.178488 -29.623955 2.404911 2.199509 -50.675982 -2.129921 12.385720 12.107803 -11.731391 -4.878759 -10.579307 -4.111673 12.474638 35.876118 6.195926 0.993249 48.959290 -1.810901 16.178481 -9.331475 7.456985 2.528134 10.598229 4.007591 15.381066 
0.443061 1.581787 1.008706 83.732271 -0.653973 83.790051 -2.908982 0.380420 5.867383 -4.030989 -10.051970 2.693579 5.496763 9.701225 -6.231897 0.000000 -0.000000 0.000000 -0.426842 0.303940 -11.263635 -1.946655 -4.108165 54.778437 1.901098 -11.159757 -2.529456 0.000000 -0.000000 0.000000 -4.815229 -1.760043 6.776552 2.298149 -3.801158 10.896457 -2.323044 -1.791675 -5.716666 0.730778 -19.079128 -5.099884 4.741313 -21.106315 6.428351 -29.351583 1.398652 2.098178 -50.488543 -4.564582 12.279133 11.687761 -12.819182 -4.559637 -9.366084 -4.693017 12.015352 35.463449 5.272036 1.011323 48.869334 -3.983681 14.826142 -9.963987 6.576118 1.342283 9.646466 4.056541 13.486731 
0.470915 1.582425 1.009800 85.275316 -0.228901 83.379877 -2.481504 1.262019 7.926663 -4.192113 -11.041598 2.922592 4.474280 9.341616 -7.279841 0.000000 -0.000000 0.000000 -0.470528 -0.128783 -12.937420 -2.398458 -5.708260 49.774218 0.927017 -12.128975 -6.269545 0.000000 -0.000000 0.000000 -4.240954 -2.488687 7.902868 2.416781 -3.827597 10.455483 -2.058459 -2.200884 -5.591869 0.722206 -19.035323 -5.170053 5.124973 -21.561085 6.207430 -29.283379 0.042174 2.170988 -49.885823 -6.746699 12.349317 11.475803 -14.280678 -4.697041 -8.527661 -4.761966 11.479617 34.766858 4.572196 1.400387 49.233231 -5.949918 13.862986 -10.041789 6.345441 0.373142 10.263210 3.691276 11.180466 
0.497472 1.582428 1.010796 86.584084 -0.019778 83.473164 -2.162212 2.068079 9.457989 -4.224872 -11.992631 3.041264 3.290865 8.879705 -7.752483 0.000000 -0.000000 0.000000 -0.384100 -0.556343 -14.128352 -2.849775 -6.516759 41.950816 0.724278 -12.687056 -8.769042 0.000000 -0.000000 0.000000 -3.808041 -3.095093 8.467962 2.504589 -4.035453 10.173097 -1.841216 -2.422248 -5.659445 0.347752 -18.962212 -4.810237 5.754575 -22.215306 5.441909 -29.490908 -1.256245 2.293870 -48.849736 -8.758636 12.512589 11.163276 -16.180765 -4.858020 -7.110135 -5.329259 11.508039 34.046136 3.981315 1.473454 49.668354 -8.064269 13.300691 -10.003942 7.225379 0.385680 9.185252 4.454238 10.682425 
